<?xml version="1.0" encoding="utf-8"?>
<!-- Generator: Adobe Illustrator 16.0.0, SVG Export Plug-In . SVG Version: 6.00 Build 0)  -->
<!DOCTYPE svg PUBLIC "-//W3C//DTD SVG 1.1//EN" "http://www.w3.org/Graphics/SVG/1.1/DTD/svg11.dtd">
<svg version="1.1" id="Layer_1" xmlns="http://www.w3.org/2000/svg" xmlns:xlink="http://www.w3.org/1999/xlink" x="0px" y="0px"
	 width="500px" height="500px" viewBox="0 0 500 500" enable-background="new 0 0 500 500" xml:space="preserve">
<g>
	<path fill-rule="evenodd" clip-rule="evenodd" fill="#FFFFFF" d="M281.604,205.985c-14.571,0-29.077,0-43.933,0
		c1.004-4.388,1.917-8.442,2.863-12.488c1.398-5.974,2.888-11.923,4.188-17.922c0.353-1.63,1.089-1.858,2.392-1.854
		c11.663,0.038,23.325-0.02,34.987,0.063c1.821,0.012,2.47-0.508,2.618-2.567c0.656-9.04,1.496-18.064,2.24-27.097
		c0.095-1.141,0.014-2.298,0.014-3.742c-11.246,0-22.283,0-33.527,0c1.006-4.487,1.897-8.654,2.879-12.797
		c1.234-5.21,2.619-10.381,3.783-15.609c0.487-2.19,1.436-3.162,3.556-3.156c17.638,0.049,35.276,0.049,52.913-0.007
		c1.685-0.005,2.344,0.527,2.195,2.394c-0.583,7.325-1.119,14.654-1.648,21.984c-0.349,4.833-0.604,9.676-0.996,14.506
		c-0.466,5.762-1.068,11.51-1.539,17.271c-0.224,2.727-0.225,5.476-0.419,8.206c-0.586,8.191-1.151,16.386-1.847,24.566
		c-0.961,11.29-2.071,22.563-3.043,33.852c-0.407,4.744-0.556,9.514-0.947,14.26c-0.44,5.356-1.074,10.691-1.519,16.049
		c-0.252,3.037-0.346,6.096-0.405,9.146c-0.023,1.243-0.471,1.727-1.547,2.046c-15.377,4.571-30.738,9.199-46.107,13.8
		c-3.658,1.096-7.302,2.272-11.005,3.15c-1.53,0.364-3.284,0.396-4.791-0.029c-7.351-2.08-14.635-4.443-21.986-6.525
		c-1.943-0.55-1.477-1.952-1.247-3.08c0.868-4.268,1.889-8.5,2.901-12.731c0.994-4.159,2.054-8.298,3.071-12.45
		c0.52-2.121,1.664-2.772,3.677-2.191c4.853,1.399,9.704,2.815,14.588,4.072c1.061,0.274,2.31,0.125,3.387-0.183
		c9.504-2.71,18.984-5.527,28.488-8.241c1.664-0.474,2.457-1.208,2.625-3.281c0.683-8.409,1.629-16.794,2.412-25.196
		c0.391-4.2,0.649-8.416,0.942-12.625C281.846,207.137,281.701,206.683,281.604,205.985z"/>
	<path fill-rule="evenodd" clip-rule="evenodd" fill="#FFFFFF" d="M245.461,109.019c-1.056,4.371-2.037,8.437-3.021,12.503
		c-1.353,5.59-2.785,11.161-4.015,16.783c-0.351,1.602-0.854,2.129-2.388,2.117c-9.862-0.078-19.725-0.039-29.587-0.038
		c-0.775,0-1.549,0-2.744,0c0.256,3.114,0.497,5.952,0.721,8.789c0.593,7.48,1.228,14.957,1.734,22.444
		c0.121,1.783,0.796,2.172,2.296,2.154c6.19-0.075,12.381-0.036,18.572-0.025c0.843,0.001,1.685,0.082,2.831,0.141
		c-0.309,1.239-0.546,2.193-0.783,3.147c-1.98,7.998-4.169,15.944-5.869,24.013c-1.148,5.451-0.893,4.898-6.173,4.934
		c-2.582,0.018-5.163,0.003-7.971,0.003c0,2.859-0.165,5.579,0.038,8.266c0.323,4.277,0.943,8.525,1.342,12.796
		c0.435,4.664,0.7,9.346,1.148,14.008c0.646,6.711-1.034,13.017-2.611,19.363c-1.235,4.971-2.415,9.959-3.525,14.965
		c-0.672,3.028-1.146,3.242-3.833,2.357c-5.011-1.648-10.069-3.135-15.143-4.537c-1.381-0.38-1.985-0.842-2.091-2.54
		c-0.558-8.97-1.228-17.934-1.946-26.89c-0.743-9.269-1.636-18.524-2.37-27.793c-0.709-8.946-1.242-17.909-1.958-26.854
		c-0.742-9.271-1.675-18.524-2.404-27.796c-0.711-9.038-1.25-18.092-1.905-27.135c-0.542-7.483-1.11-14.964-1.742-22.438
		c-0.185-2.19,0.386-2.97,2.555-2.962c22.748,0.084,45.496,0.05,68.244,0.058C243.628,108.851,244.392,108.946,245.461,109.019z"/>
</g>
</svg>
