<?xml version="1.0" encoding="utf-8"?>
<!-- Generator: Adobe Illustrator 16.0.0, SVG Export Plug-In . SVG Version: 6.00 Build 0)  -->
<!DOCTYPE svg PUBLIC "-//W3C//DTD SVG 1.1//EN" "http://www.w3.org/Graphics/SVG/1.1/DTD/svg11.dtd">
<svg version="1.1" id="Layer_1" xmlns="http://www.w3.org/2000/svg" xmlns:xlink="http://www.w3.org/1999/xlink" x="0px" y="0px"
	 width="500px" height="500px" viewBox="0 0 500 500" enable-background="new 0 0 500 500" xml:space="preserve">
<g>
	<path fill-rule="evenodd" clip-rule="evenodd" fill="#FFFFFF" d="M269.84,234.903c-10.06,0-20.073,0-30.329,0
		c0.693-3.029,1.323-5.828,1.977-8.621c0.965-4.124,1.993-8.231,2.891-12.372c0.244-1.126,0.752-1.283,1.651-1.281
		c8.052,0.027,16.103-0.014,24.154,0.044c1.257,0.009,1.705-0.351,1.807-1.772c0.453-6.24,1.033-12.471,1.547-18.707
		c0.065-0.787,0.01-1.586,0.01-2.583c-7.764,0-15.384,0-23.146,0c0.694-3.098,1.311-5.975,1.987-8.834
		c0.853-3.597,1.809-7.167,2.612-10.776c0.336-1.512,0.991-2.183,2.455-2.179c12.176,0.034,24.354,0.034,36.528-0.004
		c1.163-0.003,1.618,0.364,1.516,1.653c-0.402,5.057-0.772,10.117-1.138,15.177c-0.24,3.336-0.417,6.68-0.688,10.015
		c-0.321,3.978-0.737,7.946-1.063,11.922c-0.154,1.883-0.155,3.78-0.289,5.666c-0.404,5.654-0.795,11.312-1.275,16.959
		c-0.663,7.794-1.43,15.577-2.101,23.37c-0.281,3.275-0.384,6.568-0.654,9.845c-0.304,3.697-0.741,7.381-1.048,11.079
		c-0.174,2.097-0.238,4.208-0.28,6.313c-0.016,0.858-0.324,1.192-1.067,1.413c-10.616,3.155-21.221,6.351-31.831,9.526
		c-2.525,0.757-5.041,1.569-7.598,2.175c-1.056,0.252-2.267,0.274-3.307-0.02c-5.075-1.437-10.104-3.068-15.179-4.505
		c-1.342-0.38-1.02-1.348-0.861-2.127c0.6-2.946,1.305-5.868,2.003-8.789c0.687-2.871,1.418-5.729,2.12-8.596
		c0.358-1.464,1.148-1.913,2.538-1.513c3.351,0.967,6.699,1.944,10.071,2.812c0.732,0.189,1.595,0.086,2.338-0.126
		c6.562-1.871,13.105-3.815,19.667-5.689c1.148-0.327,1.696-0.834,1.813-2.265c0.471-5.806,1.124-11.594,1.665-17.395
		c0.27-2.899,0.448-5.81,0.65-8.717C270.007,235.698,269.907,235.385,269.84,234.903z"/>
	<path fill-rule="evenodd" clip-rule="evenodd" fill="#FFFFFF" d="M244.889,167.961c-0.729,3.018-1.406,5.825-2.085,8.632
		c-0.935,3.859-1.923,7.705-2.772,11.586c-0.242,1.106-0.589,1.47-1.648,1.461c-6.809-0.054-13.617-0.027-20.425-0.026
		c-0.535,0-1.07,0-1.895,0c0.177,2.15,0.343,4.109,0.498,6.067c0.409,5.164,0.848,10.326,1.197,15.494
		c0.083,1.23,0.549,1.5,1.584,1.487c4.273-0.052,8.548-0.024,12.822-0.017c0.581,0,1.163,0.056,1.954,0.097
		c-0.213,0.855-0.377,1.514-0.54,2.173c-1.367,5.521-2.879,11.008-4.052,16.577c-0.793,3.764-0.616,3.382-4.262,3.407
		c-1.782,0.012-3.564,0.002-5.503,0.002c0,1.974-0.113,3.852,0.026,5.706c0.223,2.952,0.651,5.886,0.927,8.834
		c0.3,3.22,0.482,6.452,0.793,9.671c0.445,4.633-0.715,8.986-1.803,13.367c-0.854,3.432-1.668,6.875-2.435,10.331
		c-0.464,2.091-0.792,2.238-2.646,1.628c-3.459-1.139-6.951-2.165-10.454-3.133c-0.953-0.262-1.37-0.581-1.443-1.754
		c-0.385-6.192-0.848-12.38-1.344-18.563c-0.512-6.398-1.129-12.788-1.636-19.188c-0.489-6.177-0.857-12.364-1.351-18.539
		c-0.513-6.401-1.156-12.788-1.66-19.189c-0.491-6.239-0.863-12.49-1.315-18.733c-0.374-5.167-0.767-10.331-1.202-15.491
		c-0.128-1.512,0.266-2.05,1.764-2.045c15.704,0.058,31.409,0.034,47.113,0.04C243.623,167.845,244.15,167.911,244.889,167.961z"/>
</g>
</svg>
